Coordinates
version=1
nRows=5
nColumns=63
inDegrees=yes

Units are S.I. units (second, meters, Newtons, ...)
If the header above contains a line with 'inDegrees', this indicates whether rotational values are in degrees (yes) or radians (no).

endheader
time	pelvis_tilt	pelvis_list	pelvis_rotation	pelvis_tx	pelvis_ty	pelvis_tz	hip_flexion_r	hip_adduction_r	hip_rotation_r	knee_angle_r	knee_angle_r_beta	ankle_angle_r	subtalar_angle_r	mtp_angle_r	hip_flexion_l	hip_adduction_l	hip_rotation_l	knee_angle_l	knee_angle_l_beta	ankle_angle_l	subtalar_angle_l	mtp_angle_l	L5_S1_Flex_Ext	L5_S1_Lat_Bending	L5_S1_axial_rotation	L4_L5_Flex_Ext	L4_L5_Lat_Bending	L4_L5_axial_rotation	L3_L4_Flex_Ext	L3_L4_Lat_Bending	L3_L4_axial_rotation	L2_L3_Flex_Ext	L2_L3_Lat_Bending	L2_L3_axial_rotation	L1_L2_Flex_Ext	L1_L2_Lat_Bending	L1_L2_axial_rotation	L1_T12_Flex_Ext	L1_T12_Lat_Bending	L1_T12_axial_rotation	Abs_r3	Abs_r2	Abs_r1	Abs_t1	Abs_t2	neck_flexion	neck_bending	neck_rotation	arm_flex_r	arm_add_r	arm_rot_r	elbow_flex_r	pro_sup_r	wrist_flex_r	wrist_dev_r	arm_flex_l	arm_add_l	arm_rot_l	elbow_flex_l	pro_sup_l	wrist_flex_l	wrist_dev_l
      5.34090909	     -3.35646723	     -0.03763837	    104.76442945	      0.21310537	      1.07857607	      0.45069558	      1.61011741	     -0.24612905	      0.47877768	     12.53082570	      0.21870417	     28.77648932	     -2.11166910	      0.00000000	      3.63725725	     -0.71693618	      2.34856553	     12.92641252	      0.22560846	     25.22565327	      4.59525683	      0.00000000	     -0.22296959	      0.25132319	      1.11298286	     -0.41407682	      0.33425984	      1.18254429	     -0.36631673	      0.61106720	      1.18254429	     -0.25483194	      0.61106720	      0.97386000	     -0.20704956	      0.51249824	      0.90429857	     -0.12740482	      0.38929962	      0.83473714	     -1.59264946	      2.84301816	      6.19007676	      0.00000000	      0.00000000	      8.31154655	      0.54342349	    -17.69395303	     14.17240909	     -1.53208285	     59.24859897	     28.03903918	     55.17342425	     -7.42467797	      6.19635205	      7.67615895	     -5.30925364	    135.47144692	      0.73392732	      1.50245323	     -3.24360828	    -13.68473010
      5.36363636	     -3.35989588	     -0.00032797	    105.25061529	      0.21228333	      1.07922360	      0.45076770	      1.18154888	     -0.26704342	     -0.14183531	     11.83544307	      0.20656745	     28.42022327	     -1.85581099	      0.00000000	      3.74582981	     -0.66699250	      2.96774982	     13.16169030	      0.22971483	     25.10731027	      4.40863424	      0.00000000	     -0.21183936	      0.26386938	      0.97932859	     -0.39340687	      0.35094627	      1.04053663	     -0.34803088	      0.64157201	      1.04053663	     -0.24211120	      0.64157201	      0.85691252	     -0.19671403	      0.53808244	      0.79570448	     -0.12104501	      0.40873367	      0.73449644	     -1.51314736	      2.98494319	      5.44673182	      0.00000000	      0.00000000	      7.93694126	      0.70825577	    -16.77938195	     13.32688064	     -2.25654474	     57.89729375	     28.29668064	     58.49587583	     -8.79513278	      5.07183680	      7.81664372	     -5.33609053	    136.36489904	      0.70035496	      1.50820550	     -3.57482035	    -13.37838647
      5.38636364	     -3.45472363	      0.07518371	    105.39701062	      0.21181653	      1.07980258	      0.45089615	      0.78691462	     -0.38729301	     -0.56008690	     11.26037079	      0.19653055	     28.22812712	     -1.34254405	      0.00000000	      3.70826610	     -0.54370081	      3.28666256	     13.29300775	      0.23200675	     25.00456083	      4.19556023	      0.00000000	     -0.20976564	      0.26389238	      0.81916085	     -0.38955577	      0.35097686	      0.87035840	     -0.34462397	      0.64162792	      0.87035840	     -0.23974115	      0.64162792	      0.71676575	     -0.19478838	      0.53812933	      0.66556819	     -0.11986009	      0.40876929	      0.61437064	     -1.49833501	      2.98520334	      4.55592691	      0.00000000	      0.00000000	      7.44095301	      0.86202472	    -15.71181673	     12.95790759	     -2.78491441	     57.95773731	     28.25936651	     66.43130414	    -10.42573655	      4.35755273	      7.75314756	     -5.41939309	    137.10632507	      0.67701966	      1.50517283	     -4.04257265	    -13.12895949
      5.40909091	     -3.46466833	      0.06416410	    105.38600609	      0.21125858	      1.08000122	      0.45099349	      0.54751587	     -0.49898086	     -1.51292370	     10.74230102	      0.18748852	     28.25371527	     -0.14666621	      0.00000000	      3.78581204	     -0.46543419	      3.50250347	     13.48239125	      0.23531212	     24.96039228	      3.87737430	      0.00000000	     -0.19384721	      0.26817131	      0.72571765	     -0.35999365	      0.35666784	      0.77107500	     -0.31847158	      0.65203173	      0.77107500	     -0.22154797	      0.65203173	      0.63500294	     -0.18000652	      0.54685494	      0.58964559	     -0.11076429	      0.41539736	      0.54428824	     -1.38463121	      3.03360751	      4.03622386	      0.00000000	      0.00000000	      7.16746369	      1.02317676	    -15.18409063	     11.20516339	     -3.10855273	     50.99352875	     29.53874683	     84.61128634	    -10.56068448	      6.38187010	      7.67398507	     -5.40551662	    137.75480168	      0.66302249	      1.57593957	     -4.69940811	    -13.07010822
      5.43181818	     -3.55942703	      0.05444834	    105.09709468	      0.21092455	      1.08017602	      0.45147808	      0.39474002	     -0.64757666	     -1.47998772	     10.34456360	      0.18054669	     28.13401642	     -0.02853112	      0.00000000	      3.78525123	     -0.32997078	      3.30870716	     13.55373300	      0.23655727	     24.89724027	      3.83577488	      0.00000000	     -0.19054415	      0.26266331	      0.63437461	     -0.35385954	      0.34934221	      0.67402302	     -0.31304498	      0.63863958	      0.67402302	     -0.21777291	      0.63863958	      0.55507778	     -0.17693929	      0.53562303	      0.51542937	     -0.10887693	      0.40686547	      0.47578096	     -1.36103779	      2.97129993	      3.52820126	      0.00000000	      0.00000000	      6.97074642	      1.08662010	    -14.94302687	     11.45173265	     -3.91842001	     53.90866926	     29.82223972	     87.78512673	    -11.07009376	      5.59734543	      7.57659779	     -5.43218353	    138.10281066	      0.62273844	      1.62235982	     -5.68930332	    -13.28464224
